<?xml version="1.0" encoding="UTF-8" standalone="no"?>
<!-- Created with Inkscape (http://www.inkscape.org/) -->

<svg
   xmlns:dc="http://purl.org/dc/elements/1.1/"
   xmlns:cc="http://creativecommons.org/ns#"
   xmlns:rdf="http://www.w3.org/1999/02/22-rdf-syntax-ns#"
   xmlns:svg="http://www.w3.org/2000/svg"
   xmlns="http://www.w3.org/2000/svg"
   xmlns:sodipodi="http://sodipodi.sourceforge.net/DTD/sodipodi-0.dtd"
   xmlns:inkscape="http://www.inkscape.org/namespaces/inkscape"
   width="155.3322"
   height="684.47906"
   id="svg2"
   version="1.1"
   inkscape:version="0.48.0 r9654"
   sodipodi:docname="soda_bottle_plain_shape.svg">
  <title
     id="title2990">Bottle with Soda (plain BW shape)</title>
  <defs
     id="defs4">
    <inkscape:perspective
       sodipodi:type="inkscape:persp3d"
       inkscape:vp_x="0 : 526.18109 : 1"
       inkscape:vp_y="0 : 1000 : 0"
       inkscape:vp_z="744.09448 : 526.18109 : 1"
       inkscape:persp3d-origin="372.04724 : 350.78739 : 1"
       id="perspective10" />
    <inkscape:perspective
       id="perspective2884"
       inkscape:persp3d-origin="0.5 : 0.33333333 : 1"
       inkscape:vp_z="1 : 0.5 : 1"
       inkscape:vp_y="0 : 1000 : 0"
       inkscape:vp_x="0 : 0.5 : 1"
       sodipodi:type="inkscape:persp3d" />
  </defs>
  <sodipodi:namedview
     id="base"
     pagecolor="transparent"
     bordercolor="#000000"
     borderopacity="1.0"
     inkscape:pageopacity="0.0"
     inkscape:pageshadow="2"
     inkscape:zoom="0.76554569"
     inkscape:cx="77.6661"
     inkscape:cy="342.23953"
     inkscape:document-units="px"
     inkscape:current-layer="layer1"
     showgrid="false"
     inkscape:window-width="1097"
     inkscape:window-height="716"
     inkscape:window-x="92"
     inkscape:window-y="0"
     inkscape:window-maximized="0" />
  <metadata
     id="metadata7">
    <rdf:RDF>
      <cc:Work
         rdf:about="">
        <dc:format>image/svg+xml</dc:format>
        <dc:type
           rdf:resource="http://purl.org/dc/dcmitype/StillImage" />
        <dc:title>Bottle with Soda (plain BW shape)</dc:title>
        <cc:license
           rdf:resource="http://creativecommons.org/licenses/publicdomain/" />
        <dc:date>2011-01-08</dc:date>
        <dc:description>Based on http://www.openclipart.org/detail/46639</dc:description>
        <dc:subject>
          <rdf:Bag>
            <rdf:li>bottle</rdf:li>
            <rdf:li>glass bottle</rdf:li>
            <rdf:li>drink</rdf:li>
            <rdf:li>soft drink</rdf:li>
            <rdf:li>soda</rdf:li>
          </rdf:Bag>
        </dc:subject>
        <dc:contributor>
          <cc:Agent>
            <dc:title>keksschaf</dc:title>
          </cc:Agent>
        </dc:contributor>
      </cc:Work>
      <cc:License
         rdf:about="http://creativecommons.org/licenses/publicdomain/">
        <cc:permits
           rdf:resource="http://creativecommons.org/ns#Reproduction" />
        <cc:permits
           rdf:resource="http://creativecommons.org/ns#Distribution" />
        <cc:permits
           rdf:resource="http://creativecommons.org/ns#DerivativeWorks" />
      </cc:License>
    </rdf:RDF>
  </metadata>
  <g
     inkscape:label="Layer 1"
     inkscape:groupmode="layer"
     id="layer1"
     transform="translate(-279.00052,-196.09136)">
    <path
       id="path2904"
       d="m 335.37626,879.8979 c -25.36981,-2.62283 -44.67857,-9.75826 -51.85038,-19.16098 -7.0787,-9.28066 -5.55722,-31.00326 4.36396,-62.30539 5.31899,-16.78185 6.39423,-25.46825 5.68577,-45.93281 -0.50631,-14.62503 -1.52945,-22.65856 -7.20174,-56.54685 -5.49771,-32.8453 -6.5114,-40.67931 -6.01692,-46.5 0.32707,-3.85 0.66234,-8.125 0.74505,-9.5 0.0827,-1.375 -0.44875,-7.9 -1.18101,-14.5 -2.28167,-20.56494 -0.23234,-49.56264 5.15907,-73 1.15826,-5.03513 2.15731,-13.18514 2.26778,-18.5 0.17119,-8.23555 0.66751,-10.6979 3.72892,-18.5 22.2655,-56.74437 24.13707,-62.16142 27.81246,-80.5 3.12171,-15.57595 5.57447,-38.99267 4.66882,-44.57355 -0.30571,-1.88385 -1.9958,-6.35018 -3.75577,-9.92518 -2.99325,-6.08015 -3.15285,-6.93601 -2.47103,-13.25063 0.78986,-7.31511 0.78828,-8.05591 -0.041,-19.27536 -0.49165,-6.65142 -0.30946,-7.8384 1.56987,-10.22757 2.87749,-3.65814 9.53552,-5.47128 24.86453,-6.77119 19.26828,-1.63397 42.51408,0.59395 48.73642,4.67098 4.31198,2.82532 5.75892,12.20084 2.92846,18.97508 -1.17462,2.81127 -1.23976,4.01174 -0.31026,5.71788 0.64708,1.18775 1.18378,5.15145 1.19265,8.80823 0.0135,5.56249 -0.5076,7.64786 -3.18974,12.76462 -2.87104,5.47709 -3.20591,6.99691 -3.20591,14.55009 0,10.33683 2.23545,27.88366 5.55588,43.61005 2.47702,11.7318 11.65504,37.9174 22.96678,65.52596 6.70842,16.37326 8.92844,25.1073 7.60245,29.90965 -0.70663,2.55919 -0.46444,5.27241 0.97066,10.87442 5.91965,23.10773 8.68186,53.65316 6.75057,74.64986 -0.68127,7.40666 -1.15673,15.71666 -1.05658,18.46666 0.65387,17.95402 0.25994,21.92448 -5.6057,56.5 -10.12175,59.66356 -10.28832,75.97106 -1.066,104.3629 7.19431,22.1484 10.12994,47.32112 6.5248,55.94944 -4.21254,10.08202 -19.13985,17.90459 -41.56732,21.78312 -13.4885,2.33266 -41.79533,3.27523 -55.57554,1.85057 z m -2.5,-15.94603 c 1.1,-1.1 2,-2.38788 2,-2.86195 0,-0.78569 -9.49533,-3.13805 -12.66678,-3.13805 -1.80255,0 -1.68443,3.05357 0.22348,5.77749 2.03506,2.90545 7.64092,3.02489 10.4433,0.22251 z m 0.61047,-34.76531 c 2.84641,-1.8832 6.14418,-11.73755 8.94678,-26.73469 2.85636,-15.28481 2.25934,-32.5715 -3.98376,-115.34982 -1.34189,-17.79241 -2.58238,-32.48552 -2.75665,-32.65137 -0.17426,-0.16585 -3.35356,-0.62327 -7.0651,-1.01649 l -6.74826,-0.71494 0.50568,2.86631 c 0.6808,3.85882 6.04724,62.08303 7.96026,86.36631 0.84491,10.725 1.59302,25.125 1.66248,32 0.13181,13.04659 -0.52181,16.7038 -6.59947,36.92623 -2.94378,9.79491 -3.19268,14.68673 -0.87744,17.24503 1.66349,1.83813 6.85308,2.45438 8.95548,1.06343 z m 5.75992,-275.53097 c 0.47871,-3.18796 0.61809,-6.04858 0.30973,-6.35694 -0.30836,-0.30835 -4.34406,-0.79669 -8.96821,-1.08518 l -8.40756,-0.52453 -0.64117,3.88147 c -1.31422,7.95592 -0.9781,9.21361 2.58682,9.67926 1.7875,0.23349 5.725,0.3745 8.75,0.31336 l 5.5,-0.11116 0.87039,-5.79628 z m 1.55712,-19.01307 c 1.40527,-3.69614 5.04845,-49.9188 8.56677,-108.69065 0.83959,-14.025 1.76235,-27.6375 2.05057,-30.25 l 0.52404,-4.75 -3.90612,0 -3.90611,0 -0.69236,13.25 c -0.91563,17.5229 -3.15596,39.33348 -5.62377,54.75 -4.07194,25.43752 -6.9906,41.94162 -10.40972,58.86367 -1.92959,9.55001 -3.26184,17.76251 -2.96056,18.25 0.30128,0.48748 3.90736,0.88633 8.01352,0.88633 6.87896,0 7.53474,-0.18151 8.34374,-2.30935 z m 12.54681,-163.64099 c 0.83912,-1.62269 1.52568,-4.49144 1.52568,-6.375 0,-3.03562 -0.355,-3.49566 -3.125,-4.04966 -4.68218,-0.93644 -8.67654,-0.75514 -9.40712,0.42698 -1.16306,1.88186 -0.81718,9.82222 0.49682,11.40549 0.74818,0.9015 2.88093,1.54253 5.13206,1.54253 3.25404,0 4.08867,-0.45791 5.37756,-2.95034 z m 1.79537,-59.53225 C 351.54,309.90168 347.8857,304.68812 347.88,301.103 c -0.006,-3.77156 3.03513,-9.11987 6.08145,-10.69518 1.54852,-0.80077 4.53771,-1.45595 6.64264,-1.45595 12.35586,0 15.49466,16.69662 4.23353,22.51998 -3.50788,1.814 -5.51426,1.81347 -9.69167,-0.003 l 0,4.3e-4 z m -17.71217,-32.71487 c -2.41289,-0.66849 -5.72143,-2.87895 -8.52768,-5.6974 -8.98458,-9.02366 -9.30973,-20.5067 -0.8408,-29.6944 13.36227,-14.49635 37.11948,-5.16178 37.13081,14.58926 0.008,14.44318 -13.68399,24.70292 -27.76233,20.80254 z m 3.61374,-24.45753 c 5.26396,-4.76382 -1.78792,-13.40133 -7.4254,-9.09501 -2.79947,2.13845 -3.19908,6.29678 -0.83252,8.66334 2.51153,2.51153 5.7714,2.68194 8.25792,0.43167 z m 20.14411,-24.35199 c -7.52283,-3.03102 -4.53651,-15.99302 3.68463,-15.99302 8.20754,0 11.18695,11.78348 3.92848,15.53698 -3.18161,1.64528 -4.46994,1.72245 -7.61311,0.45604 z m -8.37595,-24.0536 c -2.78216,-2.78216 -2.22047,-6.93996 1.19535,-8.84839 2.35984,-1.31845 2.90765,-1.29325 5.25,0.24151 3.37878,2.21386 3.57985,6.87841 0.39272,9.11076 -2.95263,2.0681 -4.37057,1.96362 -6.83807,-0.50388 z"
       style="fill:#806600;stroke:none;fill-opacity:1"
       sodipodi:nodetypes="csssssssssssssssssssssssssssssssssccsssccssscccssssccscccsccccscccccssssccsssssccsssscccsssccssccssccsssc" />
  </g>
</svg>
